<?xml version="1.0" encoding="UTF-8" standalone="no"?>
<svg viewBox="0 0 140 140" version="1.1" width="140" height="140" xmlns:xlink="http://www.w3.org/1999/xlink" xmlns="http://www.w3.org/2000/svg">
  <defs>
    <radialGradient id="gradient1" gradientUnits="userSpaceOnUse" gradientTransform="matrix(2.1444381,-0.1647392,0.2988358,3.1089661,-128.0519,-209.84473)" cx="82.28157" cy="115.40712" fx="85.28157" fy="115.40712" r="40.868614">
      <stop style="stop-color:#f44134" offset="0.12715517" />
      <stop style="stop-color:#ff6f00" offset="0.35344827" />
      <stop style="stop-color:#ff9800" offset="0.45689654" />
      <stop style="stop-color:#ff9800" offset="0.80448272" />
      <stop style="stop-color:#ffe702" offset="1" />
    </radialGradient>
    <radialGradient id="gradient2" gradientUnits="userSpaceOnUse" gradientTransform="matrix(2.1444381,-0.1647392,0.2988358,3.1089661,-128.0519,-209.84473)" cx="65.634941" cy="115.07905" fx="73.634941" fy="115.07905" r="40.868614">
      <stop style="stop-color:#f44134" offset="0.12715517" />
      <stop style="stop-color:#ff6f00" offset="0.35344827" />
      <stop style="stop-color:#ff9800" offset="0.45689654" />
      <stop style="stop-color:#ff9800" offset="0.80448272" />
      <stop style="stop-color:#ffe702" offset="1" />
    </radialGradient>
    <radialGradient id="gradient3" gradientUnits="userSpaceOnUse" gradientTransform="matrix(2.1444381,-0.1647392,0.2988358,3.1089661,-128.0519,-209.84473)" cx="97.464371" cy="115.81185" fx="87.464371" fy="115.81185" r="40.868614">
      <stop style="stop-color:#f44134" offset="0.12715517" />
      <stop style="stop-color:#ff6f00" offset="0.35344827" />
      <stop style="stop-color:#ff9800" offset="0.45689654" />
      <stop style="stop-color:#ff9800" offset="0.80448272" />
      <stop style="stop-color:#ffe702" offset="1" />
    </radialGradient>
  </defs>
  <path d="m 65.638772,134.88551 c -1,0 -1.71,0 -1.92,-0.79 -0.26,-1 0.44,-1.47 1.22,-1.8 20.5,-8.21 26.65,-34.139997 10.27,-49.619997 -10.13,-9.12 -21.19,-11.5 -27.27,-25.48 -9.47,-21.2 3.72,-46.63 26.12,-51.9999996 0.85,-0.09 1.91,-0.33 2.18,0.88 0.22,1 -0.58,1.39 -1.35,1.72 -11.62,4.8399996 -19.69,15.5799996 -19.57,28.2399996 -0.1,10.19 4.75,18.12 12.76,24.27 4.41,3.39 9.44,5.85 13.73,9.41 9.93,8.25 14.37,18.81 13,31.589997 -1.83,17.24 -12.83,28.89 -29.17,33.58 z" style="fill:url(#gradient1)" />
  <path d="m 53.968187,122.46237 c -6.2,-0.07 -14.18,-5.09 -17,-13 a 1.21,1.21 0 0 1 2.18,-1 c 3.76,7.09 12.91,10.38 19.82,6.46 a 11.17,11.17 0 0 0 0.87,-19.229997 c -16.59,-10.170003 -27.66,-25.390003 -27.85,-45.360003 a 53.75,53.75 0 0 1 3.26,-20.82 c 0.45,-1.17 0.55,-3.23 2.36,-2.78 1.81,0.45 1,2.33 0.83,3.57 a 64,64 0 0 0 3.14,27.81 c 4.75,13.61 15.57,20.17 27,27.39 17.67,12.720003 7.57,37.73 -14.61,36.96 z" style="fill:url(#gradient2)" />
  <path d="m 86.229356,18.36255 c 5.9,0.15 13.119996,4.72 16.529994,12.23 0.31,0.78 0.54,1.63 -0.34,2.15 -0.88,0.52 -1.5,-0.13 -2,-0.82 -3.449998,-6.64 -12.399994,-9.65 -18.919994,-6.33 a 11.22,11.22 0 0 0 -1.38,19.6 c 5.16,3.49 10.31,6.93 14.509996,11.58 13.939998,15 16.999998,37.68 9.309998,56.39 -0.65,1.62 -2.77,1.28 -2.56,-0.59 1.1,-10.34 0.4,-20.82 -3.299998,-30.65 -5.119996,-13.5 -15.819996,-19.56 -27.219996,-27 a 19.63,19.63 0 0 1 -7.34,-22.64 c 2.99,-8.46 10.93,-13.95 22.71,-13.92 z" style="fill:url(#gradient3)" />
</svg>
