<svg xmlns="http://www.w3.org/2000/svg" width="1em" height="1em" viewBox="0 0 512 512">  <path fill="#dedede" d="m 389.478,177.3 c -37.107,0 -70.263,21.654 -84.465,55.17 l -5.913,13.698 36.297,15.462 5.904,-13.698 c 8.01,-18.9 26.919,-31.095 48.177,-31.095 31.095,0 51.984,20.943 51.984,52.119 v 2.07 c -19.908,0.531 -43.785,1.845 -65.043,4.356 -49.068,5.787 -78.354,32.607 -78.354,71.748 0,20.844 7.848,39.6 22.104,52.731 13.383,12.339 31.626,18.639 51.39,18.639 27.774,0 51.75,-6.597 69.903,-20.376 V 418.5 H 480.9 V 268.956 c 0,-53.109 -38.448,-91.656 -91.422,-91.656 m -17.919,202.563 c -15.714,0 -34.065,-8.856 -34.065,-32.733 0,-9.585 3.438,-16.299 11.142,-21.771 7.506,-5.328 19.008,-9.135 32.4,-10.71 19.602,-2.313 41.679,-3.555 60.3,-4.068 -1.944,46.341 -24.813,69.282 -69.777,69.282 m -262.134,-62.28 h 112.95 L 260.346,418.5 H 302.7 L 165,67.5 29.1,418.5 H 71.454 Z M 165.9,168.939 207.525,278.1 h -83.25 z" /></svg>
